<mxfile host="app.diagrams.net" agent="Mozilla/5.0 (Windows NT 10.0; Win64; x64) AppleWebKit/537.36 (KHTML, like Gecko) Chrome/134.0.0.0 Safari/537.36" version="26.1.1">
  <diagram name="Page-1" id="BPb7KUuqTN_WfBmcmn8l">
    <mxGraphModel dx="2634" dy="1138" grid="0" gridSize="10" guides="1" tooltips="1" connect="1" arrows="1" fold="1" page="0" pageScale="1" pageWidth="850" pageHeight="1100" math="0" shadow="0">
      <root>
        <mxCell id="0" />
        <mxCell id="1" parent="0" />
        <mxCell id="NuwVipmZnlm5jZXnKbMI-6" value="User(absract)" style="swimlane;fontStyle=0;childLayout=stackLayout;horizontal=1;startSize=30;horizontalStack=0;resizeParent=1;resizeParentMax=0;resizeLast=0;collapsible=1;marginBottom=0;whiteSpace=wrap;html=1;" parent="1" vertex="1">
          <mxGeometry x="-758" y="-128" width="140" height="106" as="geometry" />
        </mxCell>
        <mxCell id="NuwVipmZnlm5jZXnKbMI-10" value="-email&lt;div&gt;-name&lt;/div&gt;&lt;div&gt;-phoneNum&lt;/div&gt;" style="rounded=0;whiteSpace=wrap;html=1;align=left;" parent="NuwVipmZnlm5jZXnKbMI-6" vertex="1">
          <mxGeometry y="30" width="140" height="76" as="geometry" />
        </mxCell>
        <mxCell id="NuwVipmZnlm5jZXnKbMI-11" style="edgeStyle=none;curved=1;rounded=0;orthogonalLoop=1;jettySize=auto;html=1;exitX=0.5;exitY=1;exitDx=0;exitDy=0;fontSize=12;startSize=8;endSize=8;" parent="NuwVipmZnlm5jZXnKbMI-6" source="NuwVipmZnlm5jZXnKbMI-10" target="NuwVipmZnlm5jZXnKbMI-10" edge="1">
          <mxGeometry relative="1" as="geometry" />
        </mxCell>
        <mxCell id="NuwVipmZnlm5jZXnKbMI-12" value="&lt;div class=&quot;custom-cursor-default-hover&quot; style=&quot;&quot;&gt;&lt;span class=&quot;custom-cursor-default-hover&quot; style=&quot;background-color: transparent;&quot;&gt;+User(email, name, phoneNum)&lt;/span&gt;&lt;/div&gt;&lt;div class=&quot;custom-cursor-default-hover&quot; style=&quot;&quot;&gt;&lt;br&gt;&lt;/div&gt;&lt;div class=&quot;custom-cursor-default-hover&quot; style=&quot;&quot;&gt;+get/setEmail()&lt;/div&gt;&lt;div class=&quot;custom-cursor-default-hover&quot; style=&quot;&quot;&gt;+get/setName()&lt;/div&gt;&lt;div class=&quot;custom-cursor-default-hover&quot; style=&quot;&quot;&gt;&lt;span style=&quot;background-color: transparent; color: light-dark(rgb(0, 0, 0), rgb(255, 255, 255));&quot;&gt;+get/setPhoneNum&lt;/span&gt;&lt;/div&gt;&lt;div style=&quot;&quot;&gt;&lt;br&gt;&lt;/div&gt;&lt;div&gt;&lt;br&gt;&lt;/div&gt;" style="rounded=0;whiteSpace=wrap;html=1;align=left;" parent="1" vertex="1">
          <mxGeometry x="-758" y="-22" width="140" height="131" as="geometry" />
        </mxCell>
        <mxCell id="NuwVipmZnlm5jZXnKbMI-13" value="Bookings" style="swimlane;fontStyle=0;childLayout=stackLayout;horizontal=1;startSize=30;horizontalStack=0;resizeParent=1;resizeParentMax=0;resizeLast=0;collapsible=1;marginBottom=0;whiteSpace=wrap;html=1;" parent="1" vertex="1">
          <mxGeometry x="-582" y="21" width="140" height="113" as="geometry" />
        </mxCell>
        <mxCell id="NuwVipmZnlm5jZXnKbMI-14" value="+bookingID&lt;div class=&quot;custom-cursor-default-hover&quot;&gt;+catId&lt;/div&gt;&lt;div class=&quot;custom-cursor-default-hover&quot;&gt;+clientId&lt;/div&gt;&lt;div class=&quot;custom-cursor-default-hover&quot;&gt;+employeeId&lt;br&gt;&lt;div class=&quot;custom-cursor-default-hover&quot;&gt;+time&lt;/div&gt;&lt;/div&gt;" style="rounded=0;whiteSpace=wrap;html=1;align=left;" parent="NuwVipmZnlm5jZXnKbMI-13" vertex="1">
          <mxGeometry y="30" width="140" height="83" as="geometry" />
        </mxCell>
        <mxCell id="NuwVipmZnlm5jZXnKbMI-15" style="edgeStyle=none;curved=1;rounded=0;orthogonalLoop=1;jettySize=auto;html=1;exitX=0.5;exitY=1;exitDx=0;exitDy=0;fontSize=12;startSize=8;endSize=8;" parent="NuwVipmZnlm5jZXnKbMI-13" source="NuwVipmZnlm5jZXnKbMI-14" target="NuwVipmZnlm5jZXnKbMI-14" edge="1">
          <mxGeometry relative="1" as="geometry" />
        </mxCell>
        <mxCell id="NuwVipmZnlm5jZXnKbMI-16" value="&lt;div style=&quot;&quot;&gt;+Booking(bookingId, time)&lt;/div&gt;&lt;div style=&quot;&quot;&gt;&lt;br&gt;&lt;/div&gt;&lt;div style=&quot;&quot;&gt;&lt;br&gt;&lt;/div&gt;&lt;div style=&quot;&quot;&gt;&lt;br&gt;&lt;/div&gt;" style="rounded=0;whiteSpace=wrap;html=1;align=left;" parent="1" vertex="1">
          <mxGeometry x="-582" y="134" width="140" height="78" as="geometry" />
        </mxCell>
        <mxCell id="NuwVipmZnlm5jZXnKbMI-17" value="Cat" style="swimlane;fontStyle=0;childLayout=stackLayout;horizontal=1;startSize=30;horizontalStack=0;resizeParent=1;resizeParentMax=0;resizeLast=0;collapsible=1;marginBottom=0;whiteSpace=wrap;html=1;" parent="1" vertex="1">
          <mxGeometry x="-398" y="-316" width="140" height="201" as="geometry" />
        </mxCell>
        <mxCell id="NuwVipmZnlm5jZXnKbMI-19" style="edgeStyle=none;curved=1;rounded=0;orthogonalLoop=1;jettySize=auto;html=1;exitX=0.5;exitY=1;exitDx=0;exitDy=0;fontSize=12;startSize=8;endSize=8;" parent="NuwVipmZnlm5jZXnKbMI-17" source="NuwVipmZnlm5jZXnKbMI-18" target="NuwVipmZnlm5jZXnKbMI-18" edge="1">
          <mxGeometry relative="1" as="geometry" />
        </mxCell>
        <mxCell id="NuwVipmZnlm5jZXnKbMI-18" value="+catId&lt;div&gt;+catImage&lt;/div&gt;&lt;div&gt;+name&lt;/div&gt;&lt;div&gt;+age&lt;/div&gt;&lt;div&gt;+gender&lt;/div&gt;&lt;div&gt;+breed&lt;/div&gt;&lt;div&gt;+color&lt;/div&gt;&lt;div&gt;+weigjt&lt;/div&gt;&lt;div&gt;+description&lt;/div&gt;&lt;div&gt;+inboundDate&lt;/div&gt;" style="rounded=0;whiteSpace=wrap;html=1;align=left;" parent="NuwVipmZnlm5jZXnKbMI-17" vertex="1">
          <mxGeometry y="30" width="140" height="171" as="geometry" />
        </mxCell>
        <mxCell id="NuwVipmZnlm5jZXnKbMI-20" value="&lt;div style=&quot;&quot;&gt;+Cat(catId, catImage, name, age, gender, breed, color, weight, description, inboundDate)&lt;/div&gt;&lt;div style=&quot;&quot;&gt;&lt;br&gt;&lt;/div&gt;&lt;div style=&quot;&quot;&gt;&lt;br&gt;&lt;/div&gt;" style="rounded=0;whiteSpace=wrap;html=1;align=left;" parent="1" vertex="1">
          <mxGeometry x="-398" y="-115" width="140" height="99" as="geometry" />
        </mxCell>
        <mxCell id="NuwVipmZnlm5jZXnKbMI-21" value="Managers(final)" style="swimlane;fontStyle=0;childLayout=stackLayout;horizontal=1;startSize=30;horizontalStack=0;resizeParent=1;resizeParentMax=0;resizeLast=0;collapsible=1;marginBottom=0;whiteSpace=wrap;html=1;" parent="1" vertex="1">
          <mxGeometry x="-972" y="-182" width="140" height="59" as="geometry" />
        </mxCell>
        <mxCell id="NuwVipmZnlm5jZXnKbMI-22" value="+managerid" style="rounded=0;whiteSpace=wrap;html=1;align=left;" parent="NuwVipmZnlm5jZXnKbMI-21" vertex="1">
          <mxGeometry y="30" width="140" height="29" as="geometry" />
        </mxCell>
        <mxCell id="NuwVipmZnlm5jZXnKbMI-23" style="edgeStyle=none;curved=1;rounded=0;orthogonalLoop=1;jettySize=auto;html=1;exitX=0.5;exitY=1;exitDx=0;exitDy=0;fontSize=12;startSize=8;endSize=8;" parent="NuwVipmZnlm5jZXnKbMI-21" source="NuwVipmZnlm5jZXnKbMI-22" target="NuwVipmZnlm5jZXnKbMI-22" edge="1">
          <mxGeometry relative="1" as="geometry" />
        </mxCell>
        <mxCell id="NuwVipmZnlm5jZXnKbMI-24" value="&lt;div style=&quot;&quot;&gt;&lt;div&gt;+Manager(managerId&lt;span style=&quot;background-color: transparent; color: light-dark(rgb(0, 0, 0), rgb(255, 255, 255));&quot;&gt;,&lt;/span&gt;&lt;/div&gt;&lt;div&gt;&lt;span style=&quot;background-color: transparent; color: light-dark(rgb(0, 0, 0), rgb(255, 255, 255));&quot;&gt;name, phoneNum, email)&lt;/span&gt;&lt;/div&gt;&lt;div&gt;&lt;br&gt;&lt;/div&gt;&lt;/div&gt;&lt;div class=&quot;custom-cursor-default-hover&quot; style=&quot;&quot;&gt;&lt;br&gt;&lt;/div&gt;" style="rounded=0;whiteSpace=wrap;html=1;align=left;" parent="1" vertex="1">
          <mxGeometry x="-972" y="-123" width="140" height="63" as="geometry" />
        </mxCell>
        <mxCell id="NuwVipmZnlm5jZXnKbMI-25" value="Rescue" style="swimlane;fontStyle=0;childLayout=stackLayout;horizontal=1;startSize=30;horizontalStack=0;resizeParent=1;resizeParentMax=0;resizeLast=0;collapsible=1;marginBottom=0;whiteSpace=wrap;html=1;" parent="1" vertex="1">
          <mxGeometry x="-588" y="-392" width="140" height="191" as="geometry" />
        </mxCell>
        <mxCell id="NuwVipmZnlm5jZXnKbMI-26" value="+rescueId&lt;div&gt;+clientId&lt;br&gt;&lt;div&gt;+location&lt;/div&gt;&lt;div&gt;+date&lt;/div&gt;&lt;div&gt;+desCatName&lt;/div&gt;&lt;div&gt;+descriptionOfCat&lt;/div&gt;&lt;div&gt;+descriptionOfEvent&lt;/div&gt;&lt;div&gt;+status&lt;/div&gt;&lt;/div&gt;" style="rounded=0;whiteSpace=wrap;html=1;align=left;" parent="NuwVipmZnlm5jZXnKbMI-25" vertex="1">
          <mxGeometry y="30" width="140" height="161" as="geometry" />
        </mxCell>
        <mxCell id="NuwVipmZnlm5jZXnKbMI-27" style="edgeStyle=none;curved=1;rounded=0;orthogonalLoop=1;jettySize=auto;html=1;exitX=0.5;exitY=1;exitDx=0;exitDy=0;fontSize=12;startSize=8;endSize=8;" parent="NuwVipmZnlm5jZXnKbMI-25" source="NuwVipmZnlm5jZXnKbMI-26" target="NuwVipmZnlm5jZXnKbMI-26" edge="1">
          <mxGeometry relative="1" as="geometry" />
        </mxCell>
        <mxCell id="NuwVipmZnlm5jZXnKbMI-28" value="&lt;div style=&quot;&quot;&gt;+Rescue(rescueId,&lt;/div&gt;&lt;div style=&quot;&quot;&gt;clientId, location, date, desCatName, descriptionOfCat, descriptionOfEvent, status)&lt;/div&gt;&lt;div style=&quot;&quot;&gt;&lt;br&gt;&lt;/div&gt;&lt;div style=&quot;&quot;&gt;&lt;br&gt;&lt;/div&gt;&lt;div style=&quot;&quot;&gt;&lt;br&gt;&lt;/div&gt;" style="rounded=0;whiteSpace=wrap;html=1;align=left;" parent="1" vertex="1">
          <mxGeometry x="-586" y="-207" width="140" height="178" as="geometry" />
        </mxCell>
        <mxCell id="lUxtXO4XZfKJDtzL8v3r-5" value="Clients(final)" style="swimlane;fontStyle=0;childLayout=stackLayout;horizontal=1;startSize=30;horizontalStack=0;resizeParent=1;resizeParentMax=0;resizeLast=0;collapsible=1;marginBottom=0;whiteSpace=wrap;html=1;" parent="1" vertex="1">
          <mxGeometry x="-983" y="-1" width="140" height="69" as="geometry" />
        </mxCell>
        <mxCell id="lUxtXO4XZfKJDtzL8v3r-6" value="+clientid&lt;div&gt;+address&lt;/div&gt;" style="rounded=0;whiteSpace=wrap;html=1;align=left;" parent="lUxtXO4XZfKJDtzL8v3r-5" vertex="1">
          <mxGeometry y="30" width="140" height="39" as="geometry" />
        </mxCell>
        <mxCell id="lUxtXO4XZfKJDtzL8v3r-7" style="edgeStyle=none;curved=1;rounded=0;orthogonalLoop=1;jettySize=auto;html=1;exitX=0.5;exitY=1;exitDx=0;exitDy=0;fontSize=12;startSize=8;endSize=8;" parent="lUxtXO4XZfKJDtzL8v3r-5" source="lUxtXO4XZfKJDtzL8v3r-6" target="lUxtXO4XZfKJDtzL8v3r-6" edge="1">
          <mxGeometry relative="1" as="geometry" />
        </mxCell>
        <mxCell id="lUxtXO4XZfKJDtzL8v3r-8" value="&lt;div style=&quot;&quot;&gt;&lt;div&gt;+client(clientId, email, name. phoneNum, address&lt;span style=&quot;background-color: transparent; color: light-dark(rgb(0, 0, 0), rgb(255, 255, 255));&quot;&gt;)&lt;/span&gt;&lt;/div&gt;&lt;/div&gt;&lt;div style=&quot;&quot;&gt;&lt;br&gt;&lt;/div&gt;" style="rounded=0;whiteSpace=wrap;html=1;align=left;" parent="1" vertex="1">
          <mxGeometry x="-983" y="66" width="140" height="64" as="geometry" />
        </mxCell>
        <mxCell id="lUxtXO4XZfKJDtzL8v3r-9" value="Employees(final)" style="swimlane;fontStyle=0;childLayout=stackLayout;horizontal=1;startSize=30;horizontalStack=0;resizeParent=1;resizeParentMax=0;resizeLast=0;collapsible=1;marginBottom=0;whiteSpace=wrap;html=1;" parent="1" vertex="1">
          <mxGeometry x="-972" y="-392" width="140" height="86" as="geometry" />
        </mxCell>
        <mxCell id="lUxtXO4XZfKJDtzL8v3r-11" style="edgeStyle=none;curved=1;rounded=0;orthogonalLoop=1;jettySize=auto;html=1;exitX=0.5;exitY=1;exitDx=0;exitDy=0;fontSize=12;startSize=8;endSize=8;" parent="lUxtXO4XZfKJDtzL8v3r-9" source="lUxtXO4XZfKJDtzL8v3r-10" target="lUxtXO4XZfKJDtzL8v3r-10" edge="1">
          <mxGeometry relative="1" as="geometry" />
        </mxCell>
        <mxCell id="lUxtXO4XZfKJDtzL8v3r-10" value="+employeeId&lt;div class=&quot;custom-cursor-default-hover&quot;&gt;+j&lt;span style=&quot;background-color: transparent; color: light-dark(rgb(0, 0, 0), rgb(255, 255, 255));&quot;&gt;obTitle&lt;/span&gt;&lt;/div&gt;&lt;div class=&quot;custom-cursor-default-hover&quot;&gt;&lt;span style=&quot;background-color: transparent; color: light-dark(rgb(0, 0, 0), rgb(255, 255, 255));&quot;&gt;+manager&lt;/span&gt;&lt;/div&gt;&lt;div class=&quot;custom-cursor-default-hover&quot;&gt;&lt;br&gt;&lt;/div&gt;" style="rounded=0;whiteSpace=wrap;html=1;align=left;" parent="lUxtXO4XZfKJDtzL8v3r-9" vertex="1">
          <mxGeometry y="30" width="140" height="56" as="geometry" />
        </mxCell>
        <mxCell id="lUxtXO4XZfKJDtzL8v3r-12" value="&lt;div style=&quot;&quot;&gt;&lt;div&gt;+Employee(employeeId, name,jobTitle,&lt;/div&gt;&lt;div&gt;phoneNumber,manager,&lt;/div&gt;&lt;div&gt;&lt;span style=&quot;background-color: transparent; color: light-dark(rgb(0, 0, 0), rgb(255, 255, 255));&quot;&gt;email)&lt;/span&gt;&lt;/div&gt;&lt;div&gt;&lt;br&gt;&lt;/div&gt;&lt;/div&gt;&lt;div style=&quot;&quot;&gt;&lt;br&gt;&lt;/div&gt;" style="rounded=0;whiteSpace=wrap;html=1;align=left;" parent="1" vertex="1">
          <mxGeometry x="-972" y="-307" width="140" height="92" as="geometry" />
        </mxCell>
        <mxCell id="lUxtXO4XZfKJDtzL8v3r-13" style="edgeStyle=none;curved=1;rounded=0;orthogonalLoop=1;jettySize=auto;html=1;exitX=0.5;exitY=1;exitDx=0;exitDy=0;fontSize=12;startSize=8;endSize=8;" parent="1" source="lUxtXO4XZfKJDtzL8v3r-8" target="lUxtXO4XZfKJDtzL8v3r-8" edge="1">
          <mxGeometry relative="1" as="geometry" />
        </mxCell>
        <mxCell id="2AAPdXGFDxaCkMmqGYCO-7" value="" style="endArrow=classic;html=1;rounded=0;exitX=1;exitY=0.25;exitDx=0;exitDy=0;entryX=0;entryY=1;entryDx=0;entryDy=0;" parent="1" source="NuwVipmZnlm5jZXnKbMI-24" target="NuwVipmZnlm5jZXnKbMI-6" edge="1">
          <mxGeometry width="50" height="50" relative="1" as="geometry">
            <mxPoint x="-744" y="-187" as="sourcePoint" />
            <mxPoint x="-758" y="-218" as="targetPoint" />
          </mxGeometry>
        </mxCell>
        <mxCell id="2AAPdXGFDxaCkMmqGYCO-8" value="" style="endArrow=classic;html=1;rounded=0;exitX=1;exitY=0.75;exitDx=0;exitDy=0;entryX=0;entryY=0.5;entryDx=0;entryDy=0;" parent="1" source="lUxtXO4XZfKJDtzL8v3r-5" target="NuwVipmZnlm5jZXnKbMI-12" edge="1">
          <mxGeometry width="50" height="50" relative="1" as="geometry">
            <mxPoint x="-797" y="19" as="sourcePoint" />
            <mxPoint x="-756" y="-207" as="targetPoint" />
          </mxGeometry>
        </mxCell>
        <mxCell id="2AAPdXGFDxaCkMmqGYCO-32" value="" style="endArrow=classic;html=1;rounded=0;exitX=0.993;exitY=0.387;exitDx=0;exitDy=0;exitPerimeter=0;entryX=0;entryY=0.5;entryDx=0;entryDy=0;" parent="1" source="lUxtXO4XZfKJDtzL8v3r-12" target="NuwVipmZnlm5jZXnKbMI-6" edge="1">
          <mxGeometry width="50" height="50" relative="1" as="geometry">
            <mxPoint x="-743" y="-310" as="sourcePoint" />
            <mxPoint x="-735" y="-305" as="targetPoint" />
          </mxGeometry>
        </mxCell>
      </root>
    </mxGraphModel>
  </diagram>
</mxfile>
